<?xml version="1.0" encoding="UTF-8"?><svg id="Calque_1" xmlns="http://www.w3.org/2000/svg" xmlns:xlink="http://www.w3.org/1999/xlink" viewBox="0 0 2638.45 745.94"><defs><style>.cls-1{fill:#000;}.cls-1,.cls-2,.cls-3,.cls-4{stroke-width:0px;}.cls-5{isolation:isolate;}.cls-2{fill:url(#Dégradé_sans_nom_99);}.cls-3{fill:url(#Dégradé_sans_nom_99-2);}.cls-4{fill:#fff;}</style><linearGradient id="Dégradé_sans_nom_99" x1="815.83" y1="367.52" x2="2453.46" y2="367.52" gradientUnits="userSpaceOnUse"><stop offset="0" stop-color="#902fed"/><stop offset="1" stop-color="#c983ff"/></linearGradient><linearGradient id="Dégradé_sans_nom_99-2" x1="217.53" y1="192.34" x2="607.29" y2="541.68" xlink:href="#Dégradé_sans_nom_99"/></defs><path class="cls-1" d="M815.83,437.44h13.43v-130h-13.43v-18.95h116.8v36.94h-18.95v-17.99h-64.52v54.92h74.11v18.95h-74.11v56.12h67.88v-17.99h18.95v36.94h-120.16v-18.95Z"/><path class="cls-1" d="M1021.85,437.44h18.47v-37.34c-.32-4.34-1.88-8.07-4.68-11.2-2.8-3.13-7.24-4.86-13.31-5.18-4.16,0-8.12.73-11.87,2.18-3.76,1.45-7.08,3.47-9.95,6.05-2.88,2.58-5.2,5.64-6.96,9.19-1.76,3.54-2.64,7.42-2.64,11.61v24.7h15.11v18.95h-53.25v-18.95h18.23v-52.05h-15.83v-18.95h33.34v2.16c.32,3.84.6,7.32.84,10.43.24,3.12.52,6.6.84,10.43,3.2-7.67,8.35-13.79,15.47-18.35,7.11-4.56,14.99-6.84,23.62-6.84,9.43,0,16.87,2.48,22.31,7.44,5.43,4.96,8.31,11.43,8.63,19.43v46.29h14.87v18.95h-53.25v-18.95Z"/><path class="cls-1" d="M1169.83,448.23c-4.16,3.2-8.75,5.72-13.79,7.55-5.04,1.84-10.43,2.76-16.19,2.76-6.72,0-12.99-1.24-18.83-3.72-5.84-2.48-10.91-5.88-15.23-10.19-4.32-4.32-7.72-9.31-10.19-14.99-2.48-5.67-3.72-11.79-3.72-18.35s1.24-12.47,3.72-18.23c2.48-5.76,5.88-10.75,10.19-14.99,4.32-4.23,9.39-7.59,15.23-10.07,5.83-2.48,12.11-3.72,18.83-3.72,5.91,0,11.43.92,16.55,2.76,5.12,1.84,9.75,4.36,13.91,7.56v27.82h-17.75v-16.07c-4-1.76-8.24-2.64-12.71-2.64-8.32,0-15.07,2.6-20.27,7.79s-7.79,11.79-7.79,19.79,2.6,14.43,7.79,19.79c5.19,5.36,11.95,8.04,20.27,8.04,7.03,0,13.03-2,17.99-6l11.99,15.11Z"/><path class="cls-1" d="M1256.18,437.44h18.47v-37.34c-.32-4.34-1.88-8.07-4.68-11.2-2.8-3.13-7.24-4.86-13.31-5.18-4.16,0-8.12.72-11.87,2.17-3.76,1.45-7.08,3.45-9.95,6.02-2.88,2.57-5.2,5.62-6.96,9.16-1.76,3.53-2.64,7.39-2.64,11.56v24.82h15.11v18.95h-53.25v-18.95h18.23v-141.99h-18.23v-18.95h38.14v102.17l-.72,10.79c3.51-7.83,8.63-13.87,15.35-18.11,6.72-4.23,14.63-6.6,23.75-7.08,9.43,0,16.87,2.48,22.31,7.44,5.43,4.96,8.31,11.43,8.63,19.43v46.29h14.87v18.95h-53.25v-18.95Z"/><path class="cls-1" d="M1326.21,411.53c0-6.24,1.24-12.23,3.72-17.99,2.48-5.76,5.88-10.79,10.19-15.11,4.32-4.32,9.43-7.75,15.35-10.31,5.91-2.56,12.23-3.84,18.95-3.84,4.32,0,8.31.64,11.99,1.92,3.68,1.28,6.87,2.68,9.59,4.2,2.72,1.52,4.88,3,6.48,4.44,1.6,1.44,2.4,2.4,2.4,2.88,0-1.76.16-3.6.48-5.52.32-1.92.48-3.84.48-5.76h16.55v70.99h18.23v18.95h-35.74v-9.59c-.16.48-.96,1.36-2.4,2.64-1.44,1.28-3.48,2.6-6.12,3.96-2.64,1.36-5.8,2.56-9.47,3.6-3.68,1.04-7.84,1.56-12.47,1.56-6.72,0-13.03-1.24-18.95-3.72-5.92-2.48-11.03-5.88-15.35-10.19-4.32-4.32-7.72-9.31-10.19-14.99-2.48-5.67-3.72-11.71-3.72-18.11ZM1346.11,411.29c0,7.84,2.61,14.43,7.83,19.79,5.22,5.36,12,8.04,20.35,8.04s15.13-2.68,20.35-8.04c5.22-5.36,7.83-11.95,7.83-19.79s-2.61-14.59-7.83-19.79c-5.22-5.19-12-7.79-20.35-7.79s-15.14,2.6-20.35,7.79c-5.22,5.2-7.83,11.79-7.83,19.79Z"/><path class="cls-1" d="M1526.48,437.44h18.47v-37.34c-.32-4.34-1.88-8.07-4.68-11.2-2.8-3.13-7.24-4.86-13.31-5.18-4.16,0-8.12.73-11.87,2.18-3.76,1.45-7.08,3.47-9.95,6.05-2.88,2.58-5.2,5.64-6.96,9.19-1.76,3.54-2.64,7.42-2.64,11.61v24.7h15.11v18.95h-53.25v-18.95h18.23v-52.05h-15.83v-18.95h33.34v2.16c.32,3.84.6,7.32.84,10.43.24,3.12.52,6.6.84,10.43,3.2-7.67,8.35-13.79,15.47-18.35,7.11-4.56,14.99-6.84,23.62-6.84,9.43,0,16.87,2.48,22.31,7.44,5.43,4.96,8.31,11.43,8.63,19.43v46.29h14.87v18.95h-53.25v-18.95Z"/><path class="cls-1" d="M1616.66,307.92h19.91v58.52h23.5v19.43h-23.5v51.57h17.99v18.95h-37.9v-70.51h-20.15v-19.43h20.15v-58.52Z"/><path class="cls-1" d="M1767.04,404.1c-10.88,4-21.71,8-32.5,11.99-10.79,4-21.63,8-32.5,11.99,2.4,3.36,5.55,6.04,9.47,8.04,3.92,2,8.35,3,13.31,3,7.35,0,13.43-2.56,18.23-7.68l12.23,14.39c-4,4-8.56,7.12-13.67,9.35-5.12,2.24-10.71,3.36-16.79,3.36-6.72,0-12.99-1.24-18.83-3.72-5.84-2.48-10.91-5.88-15.23-10.19-4.32-4.32-7.72-9.31-10.19-14.99-2.48-5.67-3.72-11.79-3.72-18.35s1.24-12.47,3.72-18.23c2.48-5.76,5.88-10.75,10.19-14.99,4.32-4.23,9.39-7.59,15.23-10.07,5.83-2.48,12.11-3.72,18.83-3.72,4.95,0,9.71,1,14.27,3,4.56,2,8.63,4.76,12.23,8.27,3.6,3.52,6.75,7.72,9.47,12.59,2.72,4.88,4.8,10.19,6.24,15.95ZM1724.82,383.71c-8.15,0-14.79,2.44-19.91,7.32-5.12,4.88-7.84,11-8.15,18.35,7.51-2.72,14.99-5.47,22.43-8.27,7.43-2.8,14.91-5.55,22.42-8.27-2.24-2.72-4.76-4.92-7.55-6.6-2.8-1.68-5.88-2.52-9.23-2.52Z"/><path class="cls-1" d="M1863.45,451.59v-4.8c-.16.48-.96,1.36-2.4,2.64-1.44,1.28-3.48,2.6-6.12,3.96-2.64,1.36-5.8,2.56-9.47,3.6-3.68,1.04-7.84,1.56-12.47,1.56-6.72,0-13.03-1.24-18.95-3.72-5.92-2.48-11.03-5.88-15.35-10.19-4.32-4.32-7.72-9.35-10.19-15.11-2.48-5.76-3.72-11.83-3.72-18.23s1.24-12.43,3.72-18.11c2.48-5.67,5.88-10.67,10.19-14.99s9.43-7.71,15.35-10.19c5.91-2.48,12.23-3.72,18.95-3.72,4,0,7.79.56,11.39,1.68,3.6,1.12,6.75,2.4,9.47,3.84,2.72,1.44,4.92,2.88,6.6,4.32,1.68,1.44,2.68,2.4,3,2.88-.32-1.28-.72-2.52-1.2-3.72s-.88-2.44-1.2-3.72v-74.11h-15.83v-18.95h35.74v160.94h18.23v18.95h-35.74v-4.8ZM1804.69,411.29c0,7.84,2.61,14.43,7.83,19.79,5.22,5.36,12,8.04,20.35,8.04s15.13-2.68,20.35-8.04c5.22-5.36,7.83-11.95,7.83-19.79s-2.61-14.59-7.83-19.79c-5.22-5.19-12-7.79-20.35-7.79s-15.14,2.6-20.35,7.79c-5.22,5.2-7.83,11.79-7.83,19.79Z"/><path class="cls-1" d="M1987.93,437.44h10.79v-130h-10.79v-18.95h54.68c7.83,0,14.99.8,21.47,2.4,6.48,1.6,11.99,4.08,16.55,7.44,4.56,3.36,8.11,7.72,10.67,13.07,2.56,5.36,3.84,11.71,3.84,19.07,0,9.92-2.36,18.63-7.08,26.14-4.72,7.52-11.87,12.63-21.47,15.35,4.47.96,8.83,2.56,13.07,4.8,4.23,2.24,7.91,5.12,11.03,8.63,3.12,3.52,5.64,7.6,7.56,12.23,1.92,4.64,2.88,9.83,2.88,15.59,0,7.2-1.52,13.47-4.56,18.83-3.04,5.36-7.08,9.83-12.11,13.43-5.04,3.6-10.83,6.32-17.39,8.16-6.56,1.84-13.27,2.76-20.15,2.76h-59v-18.95ZM2018.63,307.44v54.92h25.9c9.43,0,16.91-2.64,22.43-7.92,5.52-5.28,8.27-12.23,8.27-20.87,0-9.43-2.88-16.15-8.63-20.15-5.76-3.99-13.27-6-22.54-6h-25.42ZM2018.63,381.31v56.12h26.62c4.95,0,9.59-.56,13.91-1.68,4.32-1.12,8.11-2.84,11.39-5.16,3.28-2.32,5.88-5.16,7.79-8.51s2.88-7.35,2.88-11.99c0-4.95-1.12-9.27-3.36-12.95-2.24-3.68-5.16-6.67-8.75-8.99-3.6-2.32-7.79-4.04-12.59-5.16-4.8-1.12-9.68-1.68-14.63-1.68h-23.26Z"/><path class="cls-1" d="M2117.92,411.29c0-6.39,1.24-12.47,3.72-18.23,2.48-5.76,5.88-10.75,10.19-14.99,4.32-4.23,9.39-7.59,15.23-10.07,5.83-2.48,12.11-3.72,18.83-3.72s13.03,1.24,18.95,3.72c5.91,2.48,11.03,5.84,15.35,10.07,4.32,4.24,7.71,9.23,10.19,14.99,2.48,5.76,3.72,11.83,3.72,18.23s-1.24,12.67-3.72,18.35c-2.48,5.68-5.88,10.67-10.19,14.99-4.32,4.32-9.44,7.72-15.35,10.19-5.92,2.48-12.23,3.72-18.95,3.72s-12.99-1.24-18.83-3.72c-5.84-2.48-10.91-5.88-15.23-10.19-4.32-4.32-7.72-9.31-10.19-14.99-2.48-5.67-3.72-11.79-3.72-18.35ZM2137.83,411.53c0,3.84.72,7.43,2.16,10.79,1.44,3.36,3.4,6.28,5.88,8.75,2.48,2.48,5.4,4.44,8.75,5.88,3.36,1.44,6.96,2.16,10.79,2.16s7.44-.72,10.79-2.16c3.36-1.44,6.31-3.39,8.87-5.88,2.56-2.48,4.56-5.4,6-8.75,1.44-3.36,2.16-6.96,2.16-10.79s-.72-7.44-2.16-10.79c-1.44-3.36-3.44-6.32-6-8.88-2.56-2.56-5.52-4.56-8.87-6-3.36-1.44-6.96-2.16-10.79-2.16s-7.44.72-10.79,2.16c-3.36,1.44-6.28,3.44-8.75,6-2.48,2.56-4.44,5.52-5.88,8.88-1.44,3.36-2.16,6.96-2.16,10.79Z"/><path class="cls-1" d="M2230.89,411.29c0-6.39,1.24-12.47,3.72-18.23,2.48-5.76,5.88-10.75,10.19-14.99,4.32-4.23,9.39-7.59,15.23-10.07,5.83-2.48,12.11-3.72,18.83-3.72s13.03,1.24,18.95,3.72c5.91,2.48,11.03,5.84,15.35,10.07,4.32,4.24,7.71,9.23,10.19,14.99,2.48,5.76,3.72,11.83,3.72,18.23s-1.24,12.67-3.72,18.35c-2.48,5.68-5.88,10.67-10.19,14.99-4.32,4.32-9.44,7.72-15.35,10.19-5.92,2.48-12.23,3.72-18.95,3.72s-12.99-1.24-18.83-3.72c-5.84-2.48-10.91-5.88-15.23-10.19-4.32-4.32-7.72-9.31-10.19-14.99-2.48-5.67-3.72-11.79-3.72-18.35ZM2250.8,411.53c0,3.84.72,7.43,2.16,10.79,1.44,3.36,3.4,6.28,5.88,8.75,2.48,2.48,5.4,4.44,8.75,5.88,3.36,1.44,6.96,2.16,10.79,2.16s7.44-.72,10.79-2.16c3.36-1.44,6.31-3.39,8.87-5.88,2.56-2.48,4.56-5.4,6-8.75,1.44-3.36,2.16-6.96,2.16-10.79s-.72-7.44-2.16-10.79c-1.44-3.36-3.44-6.32-6-8.88-2.56-2.56-5.52-4.56-8.87-6-3.36-1.44-6.96-2.16-10.79-2.16s-7.44.72-10.79,2.16c-3.36,1.44-6.28,3.44-8.75,6-2.48,2.56-4.44,5.52-5.88,8.88-1.44,3.36-2.16,6.96-2.16,10.79Z"/><path class="cls-1" d="M2405.25,437.44h2.64c-2.4-3.2-4.8-6.44-7.2-9.71-2.4-3.28-4.72-6.51-6.96-9.71l-11.75,11.03v8.4h15.11v18.95h-53.25v-18.95h18.23v-141.99h-15.83v-18.95h35.74v129.28l21.83-20.39h-8.87v-18.95h48.21v18.95h-14.87c-3.52,3.2-6.96,6.48-10.31,9.83-3.36,3.36-6.8,6.64-10.31,9.83,3.84,5.44,7.71,10.83,11.63,16.19,3.92,5.36,7.87,10.76,11.87,16.19h22.31v18.95h-48.21v-18.95Z"/><path class="cls-2" d="M815.83,437.44h13.43v-130h-13.43v-18.95h116.8v36.94h-18.95v-17.99h-64.52v54.92h74.11v18.95h-74.11v56.12h67.88v-17.99h18.95v36.94h-120.16v-18.95Z"/><path class="cls-2" d="M1021.85,437.44h18.47v-37.34c-.32-4.34-1.88-8.07-4.68-11.2-2.8-3.13-7.24-4.86-13.31-5.18-4.16,0-8.12.73-11.87,2.18-3.76,1.45-7.08,3.47-9.95,6.05-2.88,2.58-5.2,5.64-6.96,9.19-1.76,3.54-2.64,7.42-2.64,11.61v24.7h15.11v18.95h-53.25v-18.95h18.23v-52.05h-15.83v-18.95h33.34v2.16c.32,3.84.6,7.32.84,10.43.24,3.12.52,6.6.84,10.43,3.2-7.67,8.35-13.79,15.47-18.35,7.11-4.56,14.99-6.84,23.62-6.84,9.43,0,16.87,2.48,22.31,7.44,5.43,4.96,8.31,11.43,8.63,19.43v46.29h14.87v18.95h-53.25v-18.95Z"/><path class="cls-2" d="M1169.83,448.23c-4.16,3.2-8.75,5.72-13.79,7.55-5.04,1.84-10.43,2.76-16.19,2.76-6.72,0-12.99-1.24-18.83-3.72-5.84-2.48-10.91-5.88-15.23-10.19-4.32-4.32-7.72-9.31-10.19-14.99-2.48-5.67-3.72-11.79-3.72-18.35s1.24-12.47,3.72-18.23c2.48-5.76,5.88-10.75,10.19-14.99,4.32-4.23,9.39-7.59,15.23-10.07,5.83-2.48,12.11-3.72,18.83-3.72,5.91,0,11.43.92,16.55,2.76,5.12,1.84,9.75,4.36,13.91,7.56v27.82h-17.75v-16.07c-4-1.76-8.24-2.64-12.71-2.64-8.32,0-15.07,2.6-20.27,7.79s-7.79,11.79-7.79,19.79,2.6,14.43,7.79,19.79c5.19,5.36,11.95,8.04,20.27,8.04,7.03,0,13.03-2,17.99-6l11.99,15.11Z"/><path class="cls-2" d="M1256.18,437.44h18.47v-37.34c-.32-4.34-1.88-8.07-4.68-11.2-2.8-3.13-7.24-4.86-13.31-5.18-4.16,0-8.12.72-11.87,2.17-3.76,1.45-7.08,3.45-9.95,6.02-2.88,2.57-5.2,5.62-6.96,9.16-1.76,3.53-2.64,7.39-2.64,11.56v24.82h15.11v18.95h-53.25v-18.95h18.23v-141.99h-18.23v-18.95h38.14v102.17l-.72,10.79c3.51-7.83,8.63-13.87,15.35-18.11,6.72-4.23,14.63-6.6,23.75-7.08,9.43,0,16.87,2.48,22.31,7.44,5.43,4.96,8.31,11.43,8.63,19.43v46.29h14.87v18.95h-53.25v-18.95Z"/><path class="cls-2" d="M1326.21,411.53c0-6.24,1.24-12.23,3.72-17.99,2.48-5.76,5.88-10.79,10.19-15.11,4.32-4.32,9.43-7.75,15.35-10.31,5.91-2.56,12.23-3.84,18.95-3.84,4.32,0,8.31.64,11.99,1.92,3.68,1.28,6.87,2.68,9.59,4.2,2.72,1.52,4.88,3,6.48,4.44,1.6,1.44,2.4,2.4,2.4,2.88,0-1.76.16-3.6.48-5.52.32-1.92.48-3.84.48-5.76h16.55v70.99h18.23v18.95h-35.74v-9.59c-.16.48-.96,1.36-2.4,2.64-1.44,1.28-3.48,2.6-6.12,3.96-2.64,1.36-5.8,2.56-9.47,3.6-3.68,1.04-7.84,1.56-12.47,1.56-6.72,0-13.03-1.24-18.95-3.72-5.92-2.48-11.03-5.88-15.35-10.19-4.32-4.32-7.72-9.31-10.19-14.99-2.48-5.67-3.72-11.71-3.72-18.11ZM1346.11,411.29c0,7.84,2.61,14.43,7.83,19.79,5.22,5.36,12,8.04,20.35,8.04s15.13-2.68,20.35-8.04c5.22-5.36,7.83-11.95,7.83-19.79s-2.61-14.59-7.83-19.79c-5.22-5.19-12-7.79-20.35-7.79s-15.14,2.6-20.35,7.79c-5.22,5.2-7.83,11.79-7.83,19.79Z"/><path class="cls-2" d="M1526.48,437.44h18.47v-37.34c-.32-4.34-1.88-8.07-4.68-11.2-2.8-3.13-7.24-4.86-13.31-5.18-4.16,0-8.12.73-11.87,2.18-3.76,1.45-7.08,3.47-9.95,6.05-2.88,2.58-5.2,5.64-6.96,9.19-1.76,3.54-2.64,7.42-2.64,11.61v24.7h15.11v18.95h-53.25v-18.95h18.23v-52.05h-15.83v-18.95h33.34v2.16c.32,3.84.6,7.32.84,10.43.24,3.12.52,6.6.84,10.43,3.2-7.67,8.35-13.79,15.47-18.35,7.11-4.56,14.99-6.84,23.62-6.84,9.43,0,16.87,2.48,22.31,7.44,5.43,4.96,8.31,11.43,8.63,19.43v46.29h14.87v18.95h-53.25v-18.95Z"/><path class="cls-2" d="M1616.66,307.92h19.91v58.52h23.5v19.43h-23.5v51.57h17.99v18.95h-37.9v-70.51h-20.15v-19.43h20.15v-58.52Z"/><path class="cls-2" d="M1767.04,404.1c-10.88,4-21.71,8-32.5,11.99-10.79,4-21.63,8-32.5,11.99,2.4,3.36,5.55,6.04,9.47,8.04,3.92,2,8.35,3,13.31,3,7.35,0,13.43-2.56,18.23-7.68l12.23,14.39c-4,4-8.56,7.12-13.67,9.35-5.12,2.24-10.71,3.36-16.79,3.36-6.72,0-12.99-1.24-18.83-3.72-5.84-2.48-10.91-5.88-15.23-10.19-4.32-4.32-7.72-9.31-10.19-14.99-2.48-5.67-3.72-11.79-3.72-18.35s1.24-12.47,3.72-18.23c2.48-5.76,5.88-10.75,10.19-14.99,4.32-4.23,9.39-7.59,15.23-10.07,5.83-2.48,12.11-3.72,18.83-3.72,4.95,0,9.71,1,14.27,3,4.56,2,8.63,4.76,12.23,8.27,3.6,3.52,6.75,7.72,9.47,12.59,2.72,4.88,4.8,10.19,6.24,15.95ZM1724.82,383.71c-8.15,0-14.79,2.44-19.91,7.32-5.12,4.88-7.84,11-8.15,18.35,7.51-2.72,14.99-5.47,22.43-8.27,7.43-2.8,14.91-5.55,22.42-8.27-2.24-2.72-4.76-4.92-7.55-6.6-2.8-1.68-5.88-2.52-9.23-2.52Z"/><path class="cls-2" d="M1863.45,451.59v-4.8c-.16.48-.96,1.36-2.4,2.64-1.44,1.28-3.48,2.6-6.12,3.96-2.64,1.36-5.8,2.56-9.47,3.6-3.68,1.04-7.84,1.56-12.47,1.56-6.72,0-13.03-1.24-18.95-3.72-5.92-2.48-11.03-5.88-15.35-10.19-4.32-4.32-7.72-9.35-10.19-15.11-2.48-5.76-3.72-11.83-3.72-18.23s1.24-12.43,3.72-18.11c2.48-5.67,5.88-10.67,10.19-14.99s9.43-7.71,15.35-10.19c5.91-2.48,12.23-3.72,18.95-3.72,4,0,7.79.56,11.39,1.68,3.6,1.12,6.75,2.4,9.47,3.84,2.72,1.44,4.92,2.88,6.6,4.32,1.68,1.44,2.68,2.4,3,2.88-.32-1.28-.72-2.52-1.2-3.72s-.88-2.44-1.2-3.72v-74.11h-15.83v-18.95h35.74v160.94h18.23v18.95h-35.74v-4.8ZM1804.69,411.29c0,7.84,2.61,14.43,7.83,19.79,5.22,5.36,12,8.04,20.35,8.04s15.13-2.68,20.35-8.04c5.22-5.36,7.83-11.95,7.83-19.79s-2.61-14.59-7.83-19.79c-5.22-5.19-12-7.79-20.35-7.79s-15.14,2.6-20.35,7.79c-5.22,5.2-7.83,11.79-7.83,19.79Z"/><path class="cls-2" d="M1987.93,437.44h10.79v-130h-10.79v-18.95h54.68c7.83,0,14.99.8,21.47,2.4,6.48,1.6,11.99,4.08,16.55,7.44,4.56,3.36,8.11,7.72,10.67,13.07,2.56,5.36,3.84,11.71,3.84,19.07,0,9.92-2.36,18.63-7.08,26.14-4.72,7.52-11.87,12.63-21.47,15.35,4.47.96,8.83,2.56,13.07,4.8,4.23,2.24,7.91,5.12,11.03,8.63,3.12,3.52,5.64,7.6,7.56,12.23,1.92,4.64,2.88,9.83,2.88,15.59,0,7.2-1.52,13.47-4.56,18.83-3.04,5.36-7.08,9.83-12.11,13.43-5.04,3.6-10.83,6.32-17.39,8.16-6.56,1.84-13.27,2.76-20.15,2.76h-59v-18.95ZM2018.63,307.44v54.92h25.9c9.43,0,16.91-2.64,22.43-7.92,5.52-5.28,8.27-12.23,8.27-20.87,0-9.43-2.88-16.15-8.63-20.15-5.76-3.99-13.27-6-22.54-6h-25.42ZM2018.63,381.31v56.12h26.62c4.95,0,9.59-.56,13.91-1.68,4.32-1.12,8.11-2.84,11.39-5.16,3.28-2.32,5.88-5.16,7.79-8.51s2.88-7.35,2.88-11.99c0-4.95-1.12-9.27-3.36-12.95-2.24-3.68-5.16-6.67-8.75-8.99-3.6-2.32-7.79-4.04-12.59-5.16-4.8-1.12-9.68-1.68-14.63-1.68h-23.26Z"/><path class="cls-2" d="M2117.92,411.29c0-6.39,1.24-12.47,3.72-18.23,2.48-5.76,5.88-10.75,10.19-14.99,4.32-4.23,9.39-7.59,15.23-10.07,5.83-2.48,12.11-3.72,18.83-3.72s13.03,1.24,18.95,3.72c5.91,2.48,11.03,5.84,15.35,10.07,4.32,4.24,7.71,9.23,10.19,14.99,2.48,5.76,3.72,11.83,3.72,18.23s-1.24,12.67-3.72,18.35c-2.48,5.68-5.88,10.67-10.19,14.99-4.32,4.32-9.44,7.72-15.35,10.19-5.92,2.48-12.23,3.72-18.95,3.72s-12.99-1.24-18.83-3.72c-5.84-2.48-10.91-5.88-15.23-10.19-4.32-4.32-7.72-9.31-10.19-14.99-2.48-5.67-3.72-11.79-3.72-18.35ZM2137.83,411.53c0,3.84.72,7.43,2.16,10.79,1.44,3.36,3.4,6.28,5.88,8.75,2.48,2.48,5.4,4.44,8.75,5.88,3.36,1.44,6.96,2.16,10.79,2.16s7.44-.72,10.79-2.16c3.36-1.44,6.31-3.39,8.87-5.88,2.56-2.48,4.56-5.4,6-8.75,1.44-3.36,2.16-6.96,2.16-10.79s-.72-7.44-2.16-10.79c-1.44-3.36-3.44-6.32-6-8.88-2.56-2.56-5.52-4.56-8.87-6-3.36-1.44-6.96-2.16-10.79-2.16s-7.44.72-10.79,2.16c-3.36,1.44-6.28,3.44-8.75,6-2.48,2.56-4.44,5.52-5.88,8.88-1.44,3.36-2.16,6.96-2.16,10.79Z"/><path class="cls-2" d="M2230.89,411.29c0-6.39,1.24-12.47,3.72-18.23,2.48-5.76,5.88-10.75,10.19-14.99,4.32-4.23,9.39-7.59,15.23-10.07,5.83-2.48,12.11-3.72,18.83-3.72s13.03,1.24,18.95,3.72c5.91,2.48,11.03,5.84,15.35,10.07,4.32,4.24,7.71,9.23,10.19,14.99,2.48,5.76,3.72,11.83,3.72,18.23s-1.24,12.67-3.72,18.35c-2.48,5.68-5.88,10.67-10.19,14.99-4.32,4.32-9.44,7.72-15.35,10.19-5.92,2.48-12.23,3.72-18.95,3.72s-12.99-1.24-18.83-3.72c-5.84-2.48-10.91-5.88-15.23-10.19-4.32-4.32-7.72-9.31-10.19-14.99-2.48-5.67-3.72-11.79-3.72-18.35ZM2250.8,411.53c0,3.84.72,7.43,2.16,10.79,1.44,3.36,3.4,6.28,5.88,8.75,2.48,2.48,5.4,4.44,8.75,5.88,3.36,1.44,6.96,2.16,10.79,2.16s7.44-.72,10.79-2.16c3.36-1.44,6.31-3.39,8.87-5.88,2.56-2.48,4.56-5.4,6-8.75,1.44-3.36,2.16-6.96,2.16-10.79s-.72-7.44-2.16-10.79c-1.44-3.36-3.44-6.32-6-8.88-2.56-2.56-5.52-4.56-8.87-6-3.36-1.44-6.96-2.16-10.79-2.16s-7.44.72-10.79,2.16c-3.36,1.44-6.28,3.44-8.75,6-2.48,2.56-4.44,5.52-5.88,8.88-1.44,3.36-2.16,6.96-2.16,10.79Z"/><path class="cls-2" d="M2405.25,437.44h2.64c-2.4-3.2-4.8-6.44-7.2-9.71-2.4-3.28-4.72-6.51-6.96-9.71l-11.75,11.03v8.4h15.11v18.95h-53.25v-18.95h18.23v-141.99h-15.83v-18.95h35.74v129.28l21.83-20.39h-8.87v-18.95h48.21v18.95h-14.87c-3.52,3.2-6.96,6.48-10.31,9.83-3.36,3.36-6.8,6.64-10.31,9.83,3.84,5.44,7.71,10.83,11.63,16.19,3.92,5.36,7.87,10.76,11.87,16.19h22.31v18.95h-48.21v-18.95Z"/><path class="cls-3" d="M712.44,420.22c-.01,3.71-1.32,6.33-3.44,7.56l-310.66,180.54s-.04.02-.06.04c-2.14,1.29-5.14,1.13-8.44-.78l-242.69-140.11c-6.35-3.67-12.52-8.35-18.31-13.76-5.8-5.42-11.21-11.59-16.12-18.24-9.81-13.31-17.57-28.6-22.23-44.03-3.1-10.28-4.8-20.63-4.77-30.37.02-7.3,1.01-13.83,2.83-19.45,1.82-5.62,4.48-10.34,7.81-14.07,2.23-2.48,4.75-4.54,7.55-6.13l198.88-115.58,24.85-14.44,86.85-50.47c5.63-3.27,12.35-4.67,19.84-3.99,7.39.67,15.53,3.39,24.01,8.28l242.68,140.11c6.51,3.76,11.76,12.86,11.74,20.33-.01,3.71-1.32,6.33-3.44,7.56l-20.9,12.15-4.22,2.45-54,31.38-94.26,54.78-18.2,10.58-119.21,69.28c-2.14,1.24-5.11,1.07-8.38-.82l-4.81-2.78-162.47-93.8-75.41-43.54c-3.97-2.28-7.76-3.78-11.33-4.57-3.57-.78-6.92-.85-9.97-.25-.27.05-.53.11-.79.18-.25.06-.5.12-.75.19-.1.03-.21.06-.31.09-.27.08-.54.16-.8.26-.08.03-.15.05-.23.09-.14.05-.28.1-.42.15-.15.06-.29.12-.43.18-.15.06-.3.12-.44.19-.09.03-.17.08-.26.12-.31.15-.63.31-.94.48-.14.08-.28.15-.41.23-.01,0-.02.02-.04.02-.19.11-.38.22-.57.35-.03.02-.06.04-.09.06-.16.1-.32.21-.48.32-.04.03-.09.06-.13.09-.14.09-.26.18-.39.29-.4.29-.78.6-1.16.93-.1.09-.2.18-.3.27-.05.05-.11.1-.16.15-.1.09-.19.18-.29.28-.17.17-.35.35-.51.53-.14.14-.27.29-.4.43-.05.05-.1.11-.15.16-.14.15-.27.31-.41.48-.01.01-.02.02-.03.03-.16.2-.32.4-.48.61-.15.19-.29.39-.43.59-.03.04-.07.09-.1.14-.12.17-.23.33-.34.5-.02.03-.03.05-.05.09-.14.22-.28.43-.41.66-.14.23-.28.46-.41.7,0,0-.01.02-.01.02-.11.19-.21.38-.31.57-.05.08-.09.16-.13.25-.1.21-.21.42-.31.64-1.93,4.11-3.01,9.22-3.03,15.3-.01,4.56.58,9.26,1.67,14,1.1,4.74,2.71,9.52,4.75,14.2,4.09,9.36,9.91,18.29,16.72,25.54,4.54,4.83,9.52,8.93,14.8,11.98l237.88,137.34,310.77-180.61h.02s4.81,2.77,4.81,2.77c6.51,3.76,11.76,12.86,11.74,20.33Z"/><polygon class="cls-4" points="473.62 328.87 455.64 339.32 437.53 328.87 455.52 318.42 473.62 328.87"/><g class="cls-5"><polygon class="cls-4" points="437.18 266.15 419.19 276.61 401.08 266.15 419.07 255.7 437.18 266.15"/><polygon class="cls-4" points="473.39 287.06 455.4 297.51 437.3 287.06 455.28 276.61 473.39 287.06"/><polygon class="cls-4" points="509.6 307.96 491.61 318.42 473.51 307.96 491.49 297.51 509.6 307.96"/><polygon class="cls-4" points="437.65 349.78 419.66 360.23 401.55 349.78 419.54 339.32 437.65 349.78"/><path class="cls-4" d="M418.83,212.47l165.4,95.49-164.33,95.5-165.4-95.49,164.33-95.5ZM419.78,381.08l125.82-73.12-126.65-73.12-125.82,73.12,126.65,73.12h0Z"/><polygon class="cls-4" points="401.21 287.06 383.22 297.51 365.11 287.06 383.1 276.61 401.21 287.06"/><polygon class="cls-4" points="365.23 307.97 347.24 318.42 329.13 307.97 347.12 297.51 365.23 307.97"/></g><polygon class="cls-4" points="437.41 307.97 419.43 318.42 401.32 307.97 419.31 297.51 437.41 307.97"/><polygon class="cls-4" points="401.44 328.87 383.45 339.33 365.35 328.87 383.34 318.42 401.44 328.87"/><path class="cls-4" d="M695.87,397.12l-310.77,180.61-237.88-137.34c-5.29-3.05-10.26-7.15-14.8-11.98-6.81-7.25-12.63-16.18-16.72-25.54-2.04-4.68-3.65-9.46-4.75-14.2-1.09-4.74-1.68-9.44-1.67-14,.02-6.07,1.1-11.18,3.03-15.3.11-.22.21-.43.31-.64.04-.09.08-.17.13-.25.1-.19.2-.38.31-.57,0,0,0-.02.01-.02.13-.24.27-.47.41-.7.13-.23.27-.44.41-.66.02-.03.04-.06.05-.09.11-.17.22-.33.34-.5.03-.04.06-.09.1-.14.14-.2.28-.4.43-.59.16-.21.31-.41.48-.61.01,0,.02-.02.03-.03.14-.16.27-.32.41-.48.05-.05.1-.11.15-.16.13-.15.26-.29.4-.43.17-.18.34-.35.51-.53.1-.09.19-.19.29-.28.05-.05.11-.1.16-.15.1-.09.2-.18.3-.27.37-.32.76-.64,1.16-.93.13-.1.25-.19.39-.29.04-.03.09-.06.13-.09.16-.11.31-.22.48-.32.03-.02.06-.04.09-.06.19-.12.38-.23.57-.35.02,0,.03-.02.04-.02.14-.08.27-.16.41-.23.31-.17.63-.33.94-.48.09-.04.17-.09.26-.12.15-.07.29-.14.44-.19.14-.06.29-.12.43-.18.14-.05.28-.1.42-.15.08-.03.15-.06.23-.09.26-.1.53-.18.8-.26.1-.03.21-.06.31-.09.25-.07.5-.14.75-.19.26-.06.53-.12.79-.18,3.05-.6,6.4-.53,9.97.25,3.57.79,7.36,2.29,11.33,4.57l75.41,43.54,162.47,93.8,4.81,2.78c3.27,1.89,6.24,2.07,8.38.82l119.21-69.28,18.2-10.58,94.26-54.78,54-31.38c-1.1,7.49-2.43,20.52-.75,32.5,2.7,19.26,12.11,36.28,12.41,36.81Z"/></svg>
