<?xml version="1.0" encoding="UTF-8"?><svg id="Calque_1" xmlns="http://www.w3.org/2000/svg" viewBox="0 0 1293 1293"><defs><style>.cls-1{fill:#000;}.cls-1,.cls-2{stroke-width:0px;}.cls-3{isolation:isolate;}.cls-2{fill:#fff;}</style></defs><path class="cls-1" d="M1225.16,733.8c-.02,6.86-2.44,11.69-6.35,13.96l-573.97,333.55s-.07.04-.12.07c-3.96,2.38-9.49,2.08-15.6-1.44l-448.38-258.87c-11.74-6.78-23.13-15.42-33.83-25.43-10.71-10.02-20.72-21.41-29.78-33.7-18.12-24.59-32.47-52.84-41.07-81.35-5.72-19-8.86-38.11-8.81-56.11.03-13.49,1.86-25.55,5.23-35.93,3.37-10.39,8.27-19.1,14.43-26,4.12-4.59,8.78-8.38,13.94-11.32l367.45-213.54,45.92-26.68,160.46-93.25c10.4-6.05,22.82-8.62,36.66-7.37,13.65,1.24,28.7,6.26,44.36,15.3l448.37,258.87c12.02,6.94,21.73,23.76,21.69,37.57-.02,6.86-2.44,11.69-6.35,13.96l-38.61,22.44-7.8,4.53-99.77,57.98-174.16,101.21-33.63,19.54-220.24,127.99c-3.95,2.3-9.44,1.97-15.48-1.52l-8.89-5.13-300.17-173.3-139.32-80.44c-7.33-4.22-14.33-6.99-20.93-8.45-6.6-1.44-12.79-1.57-18.42-.46-.49.1-.98.21-1.46.33-.46.11-.92.23-1.38.36-.19.05-.38.11-.57.17-.5.14-1,.3-1.48.48-.14.05-.28.1-.42.16-.26.09-.52.19-.78.28-.27.11-.54.22-.8.34-.28.11-.55.23-.82.36-.16.06-.32.14-.48.22-.58.27-1.17.57-1.74.88-.26.14-.51.28-.76.43-.02.01-.04.03-.07.04-.35.21-.7.41-1.05.64-.06.03-.11.07-.17.11-.3.19-.59.38-.88.59-.08.05-.16.11-.24.16-.25.17-.48.34-.72.53-.73.53-1.45,1.11-2.14,1.71-.19.17-.37.33-.56.5-.1.09-.2.18-.3.28-.18.16-.36.34-.54.51-.32.32-.64.64-.95.97-.26.26-.5.53-.74.8-.09.1-.18.2-.27.3-.26.28-.5.58-.75.88-.02.02-.03.04-.05.05-.3.37-.59.74-.88,1.12-.27.36-.54.72-.79,1.09-.06.08-.13.17-.18.25-.22.31-.42.61-.63.92-.03.05-.06.1-.1.16-.26.4-.52.8-.76,1.22-.26.42-.51.85-.75,1.29-.01.01-.02.03-.02.04-.2.35-.39.7-.57,1.06-.09.15-.16.3-.24.46-.19.39-.38.78-.58,1.18-3.57,7.6-5.57,17.04-5.6,28.26-.02,8.43,1.07,17.11,3.09,25.87,2.03,8.76,5.01,17.59,8.78,26.24,7.56,17.29,18.31,33.8,30.89,47.19,8.39,8.93,17.58,16.5,27.35,22.14l439.49,253.75,574.17-333.68.04-.02,8.89,5.13c12.02,6.94,21.73,23.76,21.69,37.57Z"/><polygon class="cls-2" points="783.92 565.02 750.69 584.34 717.24 565.02 750.47 545.71 783.92 565.02"/><g class="cls-3"><polygon class="cls-2" points="716.59 449.15 683.35 468.46 649.9 449.15 683.13 429.84 716.59 449.15"/><polygon class="cls-2" points="783.48 487.77 750.25 507.09 716.8 487.78 750.04 468.46 783.48 487.77"/><polygon class="cls-2" points="850.38 526.4 817.15 545.71 783.7 526.4 816.93 507.09 850.38 526.4"/><polygon class="cls-2" points="717.46 603.65 684.22 622.96 650.77 603.65 684.01 584.34 717.46 603.65"/><path class="cls-2" d="M682.69,349.96l305.59,176.43-303.61,176.44-305.59-176.43,303.61-176.44ZM684.44,661.49l232.47-135.1-233.99-135.09-232.47,135.1,233.99,135.09h0Z"/><polygon class="cls-2" points="650.12 487.78 616.89 507.09 583.44 487.77 616.67 468.46 650.12 487.78"/><polygon class="cls-2" points="583.66 526.4 550.42 545.72 516.97 526.4 550.2 507.08 583.66 526.4"/></g><polygon class="cls-2" points="717.02 526.4 683.79 545.71 650.34 526.4 683.57 507.09 717.02 526.4"/><polygon class="cls-2" points="650.56 565.02 617.32 584.34 583.87 565.03 617.11 545.71 650.56 565.02"/><path class="cls-2" d="M1194.54,691.12l-574.17,333.68-439.49-253.75c-9.77-5.64-18.96-13.21-27.35-22.14-12.58-13.39-23.33-29.9-30.89-47.19-3.77-8.65-6.75-17.48-8.78-26.24-2.02-8.76-3.11-17.44-3.09-25.87.03-11.22,2.03-20.66,5.6-28.26.2-.4.39-.79.58-1.18.08-.16.15-.31.24-.46.18-.36.37-.71.57-1.06,0-.01.01-.03.02-.04.24-.44.49-.87.75-1.29.24-.42.5-.82.76-1.22.04-.06.07-.11.1-.16.21-.31.41-.61.63-.92.05-.08.12-.17.18-.25.25-.37.52-.73.79-1.09.29-.38.58-.75.88-1.12.02-.01.03-.03.05-.05.25-.3.49-.6.75-.88.09-.1.18-.2.27-.3.24-.27.48-.54.74-.8.31-.33.63-.65.95-.97.18-.17.36-.35.54-.51.1-.1.2-.19.3-.28.19-.17.37-.33.56-.5.69-.6,1.41-1.18,2.14-1.71.24-.19.47-.36.72-.53.08-.05.16-.11.24-.16.29-.21.58-.4.88-.59.06-.04.11-.08.17-.11.35-.23.7-.43,1.05-.64.03-.01.05-.03.07-.04.25-.15.5-.29.76-.43.57-.31,1.16-.61,1.74-.88.16-.08.32-.16.48-.22.27-.13.54-.25.82-.36.26-.12.53-.23.8-.34.26-.09.52-.19.78-.28.14-.06.28-.11.42-.16.48-.18.98-.34,1.48-.48.19-.06.38-.12.57-.17.46-.13.92-.25,1.38-.36.48-.12.97-.23,1.46-.33,5.63-1.11,11.82-.98,18.42.46,6.6,1.46,13.6,4.23,20.93,8.45l139.32,80.44,300.17,173.3,8.89,5.13c6.04,3.49,11.53,3.82,15.48,1.52l220.24-127.99,33.63-19.54,174.16-101.21,99.77-57.98c-2.03,13.84-4.49,37.92-1.39,60.05,4.98,35.59,22.38,67.03,22.93,68.01Z"/></svg>